<svg xmlns="http://www.w3.org/2000/svg" width="720" height="210" viewBox="0 0 720 210"><rect x=".5" y=".5" width="719" height="209" rx="6" fill="#161b22" stroke="#303d4c"/><text x="16" y="25" fill="#e6edf3" font-family="Arial,sans-serif" font-size="11" font-weight="600">GITHUB ACTIVITY</text><text x="16" y="43" fill="#98a8b9" font-family="Arial,sans-serif" font-size="10" font-weight="400">Past year · updated 2026-10-07 PKT</text><text x="16.0" y="87" fill="#79b8ff" font-family="Arial,sans-serif" font-size="32" font-weight="600">443</text><text x="16.0" y="109" fill="#98a8b9" font-family="Arial,sans-serif" font-size="12" font-weight="400">Contributions</text><text x="16.0" y="126" fill="#98a8b9" font-family="Arial,sans-serif" font-size="9" font-weight="400">past year</text><path d="M236.0 61V128" stroke="#303d4c"/><text x="248.0" y="87" fill="#56d4a2" font-family="Arial,sans-serif" font-size="32" font-weight="600">3</text><text x="248.0" y="109" fill="#98a8b9" font-family="Arial,sans-serif" font-size="12" font-weight="400">Current streak</text><text x="248.0" y="126" fill="#98a8b9" font-family="Arial,sans-serif" font-size="9" font-weight="400">days · PKT</text><path d="M468.0 61V128" stroke="#303d4c"/><text x="480.0" y="87" fill="#bc8cff" font-family="Arial,sans-serif" font-size="32" font-weight="600">6</text><text x="480.0" y="109" fill="#98a8b9" font-family="Arial,sans-serif" font-size="12" font-weight="400">Longest streak</text><text x="480.0" y="126" fill="#98a8b9" font-family="Arial,sans-serif" font-size="9" font-weight="400">days · past year</text><text x="16" y="151" fill="#98a8b9" font-family="Arial,sans-serif" font-size="9" font-weight="400">RECENT 12 WEEKS</text><rect x="16.00" y="160" width="7.19" height="14" rx="1" fill="#303d4c" opacity="0.25"/><rect x="24.19" y="160" width="7.19" height="14" rx="1" fill="#303d4c" opacity="0.25"/><rect x="32.38" y="160" width="7.19" height="14" rx="1" fill="#303d4c" opacity="0.25"/><rect x="40.57" y="160" width="7.19" height="14" rx="1" fill="#303d4c" opacity="0.25"/><rect x="48.76" y="160" width="7.19" height="14" rx="1" fill="#56d4a2" opacity="0.55"/><rect x="56.95" y="160" width="7.19" height="14" rx="1" fill="#303d4c" opacity="0.25"/><rect x="65.14" y="160" width="7.19" height="14" rx="1" fill="#303d4c" opacity="0.25"/><rect x="73.33" y="160" width="7.19" height="14" rx="1" fill="#303d4c" opacity="0.25"/><rect x="81.52" y="160" width="7.19" height="14" rx="1" fill="#303d4c" opacity="0.25"/><rect x="89.71" y="160" width="7.19" height="14" rx="1" fill="#303d4c" opacity="0.25"/><rect x="97.90" y="160" width="7.19" height="14" rx="1" fill="#303d4c" opacity="0.25"/><rect x="106.10" y="160" width="7.19" height="14" rx="1" fill="#56d4a2" opacity="0.45"/><rect x="114.29" y="160" width="7.19" height="14" rx="1" fill="#303d4c" opacity="0.25"/><rect x="122.48" y="160" width="7.19" height="14" rx="1" fill="#303d4c" opacity="0.25"/><rect x="130.67" y="160" width="7.19" height="14" rx="1" fill="#303d4c" opacity="0.25"/><rect x="138.86" y="160" width="7.19" height="14" rx="1" fill="#303d4c" opacity="0.25"/><rect x="147.05" y="160" width="7.19" height="14" rx="1" fill="#303d4c" opacity="0.25"/><rect x="155.24" y="160" width="7.19" height="14" rx="1" fill="#303d4c" opacity="0.25"/><rect x="163.43" y="160" width="7.19" height="14" rx="1" fill="#303d4c" opacity="0.25"/><rect x="171.62" y="160" width="7.19" height="14" rx="1" fill="#303d4c" opacity="0.25"/><rect x="179.81" y="160" width="7.19" height="14" rx="1" fill="#303d4c" opacity="0.25"/><rect x="188.00" y="160" width="7.19" height="14" rx="1" fill="#303d4c" opacity="0.25"/><rect x="196.19" y="160" width="7.19" height="14" rx="1" fill="#303d4c" opacity="0.25"/><rect x="204.38" y="160" width="7.19" height="14" rx="1" fill="#303d4c" opacity="0.25"/><rect x="212.57" y="160" width="7.19" height="14" rx="1" fill="#303d4c" opacity="0.25"/><rect x="220.76" y="160" width="7.19" height="14" rx="1" fill="#303d4c" opacity="0.25"/><rect x="228.95" y="160" width="7.19" height="14" rx="1" fill="#303d4c" opacity="0.25"/><rect x="237.14" y="160" width="7.19" height="14" rx="1" fill="#303d4c" opacity="0.25"/><rect x="245.33" y="160" width="7.19" height="14" rx="1" fill="#303d4c" opacity="0.25"/><rect x="253.52" y="160" width="7.19" height="14" rx="1" fill="#303d4c" opacity="0.25"/><rect x="261.71" y="160" width="7.19" height="14" rx="1" fill="#303d4c" opacity="0.25"/><rect x="269.90" y="160" width="7.19" height="14" rx="1" fill="#303d4c" opacity="0.25"/><rect x="278.10" y="160" width="7.19" height="14" rx="1" fill="#303d4c" opacity="0.25"/><rect x="286.29" y="160" width="7.19" height="14" rx="1" fill="#303d4c" opacity="0.25"/><rect x="294.48" y="160" width="7.19" height="14" rx="1" fill="#303d4c" opacity="0.25"/><rect x="302.67" y="160" width="7.19" height="14" rx="1" fill="#303d4c" opacity="0.25"/><rect x="310.86" y="160" width="7.19" height="14" rx="1" fill="#303d4c" opacity="0.25"/><rect x="319.05" y="160" width="7.19" height="14" rx="1" fill="#56d4a2" opacity="0.55"/><rect x="327.24" y="160" width="7.19" height="14" rx="1" fill="#303d4c" opacity="0.25"/><rect x="335.43" y="160" width="7.19" height="14" rx="1" fill="#56d4a2" opacity="0.5"/><rect x="343.62" y="160" width="7.19" height="14" rx="1" fill="#303d4c" opacity="0.25"/><rect x="351.81" y="160" width="7.19" height="14" rx="1" fill="#56d4a2" opacity="0.65"/><rect x="360.00" y="160" width="7.19" height="14" rx="1" fill="#56d4a2" opacity="0.55"/><rect x="368.19" y="160" width="7.19" height="14" rx="1" fill="#56d4a2" opacity="0.6000000000000001"/><rect x="376.38" y="160" width="7.19" height="14" rx="1" fill="#303d4c" opacity="0.25"/><rect x="384.57" y="160" width="7.19" height="14" rx="1" fill="#303d4c" opacity="0.25"/><rect x="392.76" y="160" width="7.19" height="14" rx="1" fill="#56d4a2" opacity="0.5"/><rect x="400.95" y="160" width="7.19" height="14" rx="1" fill="#303d4c" opacity="0.25"/><rect x="409.14" y="160" width="7.19" height="14" rx="1" fill="#56d4a2" opacity="0.65"/><rect x="417.33" y="160" width="7.19" height="14" rx="1" fill="#303d4c" opacity="0.25"/><rect x="425.52" y="160" width="7.19" height="14" rx="1" fill="#56d4a2" opacity="0.65"/><rect x="433.71" y="160" width="7.19" height="14" rx="1" fill="#303d4c" opacity="0.25"/><rect x="441.90" y="160" width="7.19" height="14" rx="1" fill="#56d4a2" opacity="1"/><rect x="450.10" y="160" width="7.19" height="14" rx="1" fill="#56d4a2" opacity="1"/><rect x="458.29" y="160" width="7.19" height="14" rx="1" fill="#56d4a2" opacity="0.65"/><rect x="466.48" y="160" width="7.19" height="14" rx="1" fill="#56d4a2" opacity="0.8"/><rect x="474.67" y="160" width="7.19" height="14" rx="1" fill="#56d4a2" opacity="1"/><rect x="482.86" y="160" width="7.19" height="14" rx="1" fill="#303d4c" opacity="0.25"/><rect x="491.05" y="160" width="7.19" height="14" rx="1" fill="#303d4c" opacity="0.25"/><rect x="499.24" y="160" width="7.19" height="14" rx="1" fill="#303d4c" opacity="0.25"/><rect x="507.43" y="160" width="7.19" height="14" rx="1" fill="#303d4c" opacity="0.25"/><rect x="515.62" y="160" width="7.19" height="14" rx="1" fill="#303d4c" opacity="0.25"/><rect x="523.81" y="160" width="7.19" height="14" rx="1" fill="#56d4a2" opacity="0.55"/><rect x="532.00" y="160" width="7.19" height="14" rx="1" fill="#303d4c" opacity="0.25"/><rect x="540.19" y="160" width="7.19" height="14" rx="1" fill="#56d4a2" opacity="0.65"/><rect x="548.38" y="160" width="7.19" height="14" rx="1" fill="#303d4c" opacity="0.25"/><rect x="556.57" y="160" width="7.19" height="14" rx="1" fill="#56d4a2" opacity="1"/><rect x="564.76" y="160" width="7.19" height="14" rx="1" fill="#56d4a2" opacity="0.9"/><rect x="572.95" y="160" width="7.19" height="14" rx="1" fill="#56d4a2" opacity="0.5"/><rect x="581.14" y="160" width="7.19" height="14" rx="1" fill="#56d4a2" opacity="0.7"/><rect x="589.33" y="160" width="7.19" height="14" rx="1" fill="#56d4a2" opacity="0.55"/><rect x="597.52" y="160" width="7.19" height="14" rx="1" fill="#56d4a2" opacity="0.7"/><rect x="605.71" y="160" width="7.19" height="14" rx="1" fill="#303d4c" opacity="0.25"/><rect x="613.90" y="160" width="7.19" height="14" rx="1" fill="#303d4c" opacity="0.25"/><rect x="622.10" y="160" width="7.19" height="14" rx="1" fill="#303d4c" opacity="0.25"/><rect x="630.29" y="160" width="7.19" height="14" rx="1" fill="#303d4c" opacity="0.25"/><rect x="638.48" y="160" width="7.19" height="14" rx="1" fill="#303d4c" opacity="0.25"/><rect x="646.67" y="160" width="7.19" height="14" rx="1" fill="#56d4a2" opacity="1"/><rect x="654.86" y="160" width="7.19" height="14" rx="1" fill="#303d4c" opacity="0.25"/><rect x="663.05" y="160" width="7.19" height="14" rx="1" fill="#303d4c" opacity="0.25"/><rect x="671.24" y="160" width="7.19" height="14" rx="1" fill="#303d4c" opacity="0.25"/><rect x="679.43" y="160" width="7.19" height="14" rx="1" fill="#56d4a2" opacity="0.45"/><rect x="687.62" y="160" width="7.19" height="14" rx="1" fill="#56d4a2" opacity="0.45"/><rect x="695.81" y="160" width="7.19" height="14" rx="1" fill="#56d4a2" opacity="0.8"/><text x="16" y="194" fill="#98a8b9" font-family="Arial,sans-serif" font-size="9" font-weight="400">Calendar contributions · today may still be in progress</text></svg>